<?xml version="1.0" encoding="UTF-8"?>
<svg id="Layer_1" data-name="Layer 1" xmlns="http://www.w3.org/2000/svg" viewBox="0 0 48 48">
  <defs>
    <style>
      .cls-1 {
        fill: #2945ff;
        stroke-width: 0px;
      }
    </style>
  </defs>
  <g>
    <path class="cls-1" d="M18.08,22.54L1.31,38.13v-14.73c0-.55.23-1.08.65-1.46l12.32-11.45c1.4-1.3,3.8-.38,3.8,1.46v10.59Z"/>
    <path class="cls-1" d="M34.05,23.28l-15.97,14.85v-15.59l12.97-12.06c1.4-1.3,3.8-.38,3.8,1.46v9.54c0,.67-.29,1.32-.8,1.8Z"/>
  </g>
  <path class="cls-1" d="M46.69,29.89c-6.78.8-7.43,1.45-8.24,8.24-.8-6.78-1.45-7.43-8.24-8.24,6.78-.8,7.43-1.45,8.24-8.24.8,6.78,1.45,7.43,8.24,8.24Z"/>
</svg>